<?xml version="1.0" encoding="UTF-8" standalone="no"?>
<!DOCTYPE svg PUBLIC "-//W3C//DTD SVG 1.1//EN" "http://www.w3.org/Graphics/SVG/1.1/DTD/svg11.dtd">
<svg width="100%" height="100%" viewBox="0 0 2481 3508" version="1.1" xmlns="http://www.w3.org/2000/svg" xmlns:xlink="http://www.w3.org/1999/xlink" xml:space="preserve" xmlns:serif="http://www.serif.com/" style="fill-rule:evenodd;clip-rule:evenodd;stroke-linecap:round;stroke-linejoin:round;stroke-miterlimit:1.5;">
    <g transform="matrix(1.09164,0,0,1.09164,-113.614,-194.583)">
        <path d="M236.119,311.169L1954.24,311.279L2016.37,444.555L2244.15,444.555L2244.15,3271.66L1366.95,3271.66L1366.95,3134.19L1240.16,3057.99L1113.36,3134.19L1113.36,3271.66L369.526,3271.66L369.526,3044.07L236.249,2981.94L236.119,311.169Z" style="fill:rgb(214,239,239);stroke:rgb(119,153,215);stroke-width:1.91px;"/>
    </g>
    <g transform="matrix(0.921867,0,0,0.921867,887.548,2965.05)">
        <path d="M382.527,228.186L508.967,301.186L508.967,447.186L382.527,520.186L256.087,447.186L256.087,301.186L382.527,228.186Z" style="fill:rgb(214,239,239);"/>
    </g>
    <g transform="matrix(0.520894,0,0,1.04179,1355.35,-186.389)">
        <path d="M1371.84,318.192L1487.07,441.953L1437.56,441.953L1322.34,318.192L1371.84,318.192ZM1470.78,318.192L1586,441.953L1536.5,441.953L1421.27,318.192L1470.78,318.192ZM1569.72,318.192L1684.94,441.953L1635.44,441.953L1520.21,318.192L1569.72,318.192ZM1668.65,318.192L1783.88,441.953L1734.37,441.953L1619.15,318.192L1668.65,318.192ZM1767.59,318.192L1882.82,441.953L1833.31,441.953L1718.09,318.192L1767.59,318.192Z" style="fill:rgb(100,130,133);"/>
    </g>
    <g transform="matrix(-3.18956e-17,-0.520894,-1.04179,6.37912e-17,522.744,3601.82)">
        <path d="M481.256,239.658L431.751,239.658L546.977,363.419L596.481,363.419L481.256,239.658ZM580.33,239.658L530.825,239.658L646.051,363.419L695.556,363.419L580.33,239.658ZM679.268,239.658L629.763,239.658L744.989,363.419L794.493,363.419L679.268,239.658ZM778.205,239.658L728.701,239.658L843.926,363.419L893.431,363.419L778.205,239.658ZM877.143,239.658L827.638,239.658L942.864,363.419L992.368,363.419L877.143,239.658Z" style="fill:rgb(100,130,133);"/>
    </g>
</svg>
