<?xml version="1.0" encoding="UTF-8" standalone="no"?>
<!DOCTYPE svg PUBLIC "-//W3C//DTD SVG 1.1//EN" "http://www.w3.org/Graphics/SVG/1.1/DTD/svg11.dtd">
<svg width="100%" height="100%" viewBox="0 0 2481 3508" version="1.1" xmlns="http://www.w3.org/2000/svg" xmlns:xlink="http://www.w3.org/1999/xlink" xml:space="preserve" xmlns:serif="http://www.serif.com/" style="fill-rule:evenodd;clip-rule:evenodd;stroke-linecap:round;stroke-linejoin:round;stroke-miterlimit:1.5;">
    <path d="M362.324,236.22L1524.64,236.331L1586.77,369.607L2244.15,369.607L2244.15,3271.66L1366.95,3271.66L1366.95,3134.19L1240.16,3057.99L1113.36,3134.19L1113.36,3271.66L369.526,3271.66L369.526,2759.69L236.249,2697.56L236.22,451.623L236.22,236.221L362.324,236.22Z" style="fill:rgb(241,251,252);stroke:rgb(119,153,215);stroke-width:2.08px;"/>
    <g transform="matrix(1,0,0,1,1142.15,0)">
        <g transform="matrix(0.477168,0,0,0.954337,203.502,7.5064)">
            <path d="M481.256,239.658L431.751,239.658L546.977,363.419L596.481,363.419L481.256,239.658Z" style="fill:rgb(100,130,133);"/>
        </g>
        <g transform="matrix(0.477168,0,0,0.954337,250.777,7.5064)">
            <path d="M481.256,239.658L431.751,239.658L546.977,363.419L596.481,363.419L481.256,239.658Z" style="fill:rgb(100,130,133);"/>
        </g>
        <g transform="matrix(0.477168,0,0,0.954337,297.987,7.5064)">
            <path d="M481.256,239.658L431.751,239.658L546.977,363.419L596.481,363.419L481.256,239.658Z" style="fill:rgb(100,130,133);"/>
        </g>
        <g transform="matrix(0.477168,0,0,0.954337,345.197,7.5064)">
            <path d="M481.256,239.658L431.751,239.658L546.977,363.419L596.481,363.419L481.256,239.658Z" style="fill:rgb(100,130,133);"/>
        </g>
        <g transform="matrix(0.477168,0,0,0.954337,392.407,7.5064)">
            <path d="M481.256,239.658L431.751,239.658L546.977,363.419L596.481,363.419L481.256,239.658Z" style="fill:rgb(100,130,133);"/>
        </g>
        <g transform="matrix(0.477168,0,0,0.954337,439.617,7.5064)">
            <path d="M481.256,239.658L431.751,239.658L546.977,363.419L596.481,363.419L481.256,239.658Z" style="fill:rgb(100,130,133);"/>
        </g>
        <g transform="matrix(0.477168,0,0,0.954337,486.827,7.5064)">
            <path d="M481.256,239.658L431.751,239.658L546.977,363.419L596.481,363.419L481.256,239.658Z" style="fill:rgb(100,130,133);"/>
        </g>
        <g transform="matrix(0.477168,0,0,0.954337,534.037,7.5064)">
            <path d="M481.256,239.658L431.751,239.658L546.977,363.419L596.481,363.419L481.256,239.658Z" style="fill:rgb(100,130,133);"/>
        </g>
        <g transform="matrix(0.477168,0,0,0.954337,581.247,7.5064)">
            <path d="M481.256,239.658L431.751,239.658L546.977,363.419L596.481,363.419L481.256,239.658Z" style="fill:rgb(100,130,133);"/>
        </g>
        <g transform="matrix(0.477168,0,0,0.954337,628.456,7.5064)">
            <path d="M481.256,239.658L431.751,239.658L546.977,363.419L596.481,363.419L481.256,239.658Z" style="fill:rgb(100,130,133);"/>
        </g>
        <g transform="matrix(0.477168,0,0,0.954337,675.666,7.5064)">
            <path d="M481.256,239.658L431.751,239.658L546.977,363.419L596.481,363.419L481.256,239.658Z" style="fill:rgb(100,130,133);"/>
        </g>
        <g transform="matrix(0.477168,0,0,0.954337,722.876,7.5064)">
            <path d="M481.256,239.658L431.751,239.658L546.977,363.419L596.481,363.419L481.256,239.658Z" style="fill:rgb(100,130,133);"/>
        </g>
        <g transform="matrix(0.477168,0,0,0.954337,770.086,7.5064)">
            <path d="M481.256,239.658L431.751,239.658L546.977,363.419L596.481,363.419L481.256,239.658Z" style="fill:rgb(100,130,133);"/>
        </g>
        <g transform="matrix(0.477168,0,0,0.954337,817.296,7.5064)">
            <path d="M481.256,239.658L431.751,239.658L546.977,363.419L596.481,363.419L481.256,239.658Z" style="fill:rgb(100,130,133);"/>
        </g>
    </g>
    <g transform="matrix(-6.12323e-17,-1,-1,6.12323e-17,590.446,3681.22)">
        <g transform="matrix(0.477168,0,0,0.954337,203.502,7.5064)">
            <path d="M481.256,239.658L431.751,239.658L546.977,363.419L596.481,363.419L481.256,239.658Z" style="fill:rgb(100,130,133);"/>
        </g>
        <g transform="matrix(0.477168,0,0,0.954337,250.777,7.5064)">
            <path d="M481.256,239.658L431.751,239.658L546.977,363.419L596.481,363.419L481.256,239.658Z" style="fill:rgb(100,130,133);"/>
        </g>
        <g transform="matrix(0.477168,0,0,0.954337,297.987,7.5064)">
            <path d="M481.256,239.658L431.751,239.658L546.977,363.419L596.481,363.419L481.256,239.658Z" style="fill:rgb(100,130,133);"/>
        </g>
        <g transform="matrix(0.477168,0,0,0.954337,345.197,7.5064)">
            <path d="M481.256,239.658L431.751,239.658L546.977,363.419L596.481,363.419L481.256,239.658Z" style="fill:rgb(100,130,133);"/>
        </g>
        <g transform="matrix(0.477168,0,0,0.954337,392.407,7.5064)">
            <path d="M481.256,239.658L431.751,239.658L546.977,363.419L596.481,363.419L481.256,239.658Z" style="fill:rgb(100,130,133);"/>
        </g>
        <g transform="matrix(0.477168,0,0,0.954337,439.617,7.5064)">
            <path d="M481.256,239.658L431.751,239.658L546.977,363.419L596.481,363.419L481.256,239.658Z" style="fill:rgb(100,130,133);"/>
        </g>
        <g transform="matrix(0.477168,0,0,0.954337,486.827,7.5064)">
            <path d="M481.256,239.658L431.751,239.658L546.977,363.419L596.481,363.419L481.256,239.658Z" style="fill:rgb(100,130,133);"/>
        </g>
        <g transform="matrix(0.477168,0,0,0.954337,534.037,7.5064)">
            <path d="M481.256,239.658L431.751,239.658L546.977,363.419L596.481,363.419L481.256,239.658Z" style="fill:rgb(100,130,133);"/>
        </g>
        <g transform="matrix(0.477168,0,0,0.954337,581.247,7.5064)">
            <path d="M481.256,239.658L431.751,239.658L546.977,363.419L596.481,363.419L481.256,239.658Z" style="fill:rgb(100,130,133);"/>
        </g>
        <g transform="matrix(0.477168,0,0,0.954337,628.456,7.5064)">
            <path d="M481.256,239.658L431.751,239.658L546.977,363.419L596.481,363.419L481.256,239.658Z" style="fill:rgb(100,130,133);"/>
        </g>
        <g transform="matrix(0.477168,0,0,0.954337,675.666,7.5064)">
            <path d="M481.256,239.658L431.751,239.658L546.977,363.419L596.481,363.419L481.256,239.658Z" style="fill:rgb(100,130,133);"/>
        </g>
    </g>
</svg>
